<svg xmlns="http://www.w3.org/2000/svg" width="16.432" height="19.968" viewBox="0 0 16.432 19.968">
  <g id="verified-svgrepo-com" transform="translate(4.299 10.88)">
    <path id="Tracé_153" data-name="Tracé 153" d="M14.786,9.5a.586.586,0,0,0-.828-.828L9.684,12.95l-1.93-1.93a.586.586,0,0,0-.828.828L9.27,14.192a.586.586,0,0,0,.828,0L14.786,9.5Z" transform="translate(-6.769 -8.519)" fill="#4b4b4b"/>
    <path id="Tracé_149" data-name="Tracé 149" d="M158.217,72.537H147.394V69.894a4.822,4.822,0,1,1,9.645,0,.536.536,0,0,0,1.072,0,5.894,5.894,0,1,0-11.788,0v2.643h-.107A2.226,2.226,0,0,0,144,74.752v7a2.226,2.226,0,0,0,2.215,2.215h12a2.226,2.226,0,0,0,2.215-2.215v-7A2.226,2.226,0,0,0,158.217,72.537Zm1.143,9.216a1.128,1.128,0,0,1-1.143,1.143h-12a1.128,1.128,0,0,1-1.143-1.143v-7a1.128,1.128,0,0,1,1.143-1.143h12a1.128,1.128,0,0,1,1.143,1.143Z" transform="translate(-148.299 -74.88)" fill="#4b4b4b"/>
  </g>
</svg>
