<svg id="User_badge_-_Recipe" data-name="User badge - Recipe" xmlns="http://www.w3.org/2000/svg" width="100" height="100" viewBox="0 0 100 100">
  <circle id="Ellipse_459" data-name="Ellipse 459" cx="50" cy="50" r="50" fill="#5a99ed"/>
  <path id="bx-user" d="M30.51,2A15.154,15.154,0,0,0,15.227,17.021a15.286,15.286,0,0,0,30.567,0A15.154,15.154,0,0,0,30.51,2Zm0,24.033a9.014,9.014,0,1,1,9.17-9.012A9.092,9.092,0,0,1,30.51,26.033Zm27.51,33.045v-3a21.215,21.215,0,0,0-21.4-21.029H24.4A21.215,21.215,0,0,0,3,56.074v3H9.113v-3A15.154,15.154,0,0,1,24.4,41.053H36.624A15.154,15.154,0,0,1,51.907,56.074v3Z" transform="translate(19.49 16.461)" fill="#fff"/>
</svg>
