<svg xmlns="http://www.w3.org/2000/svg" width="6.173" height="53.279" viewBox="0 0 6.173 53.279"><g transform="translate(-806.9 -3385.03)"><path d="M2.5-.069S.8,12.513-.9,23.153A46.085,46.085,0,0,0,.2,42.546" transform="translate(809.448 3386.224)" fill="none" stroke="#41c863" stroke-linecap="round" stroke-width="2"/><g transform="translate(807.948 3434.27)" fill="#41c863"><path d="M 2.943259954452515 3.539536714553833 C 2.796590089797974 3.539536714553833 2.638289928436279 3.529696702957153 2.485209941864014 3.520176649093628 C 2.325609922409058 3.51025652885437 2.160589933395386 3.499996662139893 2 3.499996662139893 C 1.172899961471558 3.499996662139893 0.5 2.827096700668335 0.5 1.999996662139893 C 0.5 1.17289662361145 1.172899961471558 0.4999966323375702 2 0.4999966323375702 C 2.801820039749146 0.4999966323375702 3.733890056610107 1.155226588249207 3.733890056610107 1.999996662139893 C 3.733890056610107 2.134166717529297 3.75068998336792 2.271996736526489 3.768490076065063 2.417926549911499 C 3.819809913635254 2.838866710662842 3.841089963912964 3.15187668800354 3.646450042724609 3.346526622772217 C 3.511159896850586 3.481816530227661 3.300859928131104 3.539536714553833 2.943259954452515 3.539536714553833 Z" stroke="none"/><path d="M 2 0.9999966621398926 C 1.448600053787231 0.9999966621398926 1 1.448596715927124 1 1.999996662139893 C 1 2.551396608352661 1.448600053787231 2.999996662139893 2 2.999996662139893 C 2.176110029220581 2.999996662139893 2.349020004272461 3.010746479034424 2.51623010635376 3.021146774291992 C 2.668390035629272 3.030596733093262 2.812119960784912 3.039536476135254 2.943259954452515 3.039536476135254 C 3.200523376464844 3.039536476135254 3.277752876281738 3.002041339874268 3.291197061538696 2.993904113769531 C 3.324355602264404 2.90656566619873 3.290519714355469 2.629006385803223 3.272160053253174 2.478436470031738 C 3.253350019454956 2.324116706848145 3.233890056610107 2.164536714553833 3.233890056610107 1.999996662139893 C 3.233890056610107 1.504666566848755 2.611179828643799 0.9999966621398926 2 0.9999966621398926 M 2 -3.337860107421875e-06 C 3.104569911956787 -3.337860107421875e-06 4.233890056610107 0.8954265117645264 4.233890056610107 1.999996662139893 C 4.233890056610107 2.439616680145264 4.5 3.200076580047607 4 3.700076580047607 C 3.5 4.200076580047607 2.664949893951416 3.999996662139893 2 3.999996662139893 C 0.8954300880432129 3.999996662139893 0 3.10456657409668 0 1.999996662139893 C 0 0.8954265117645264 0.8954300880432129 -3.337860107421875e-06 2 -3.337860107421875e-06 Z" stroke="none" fill="#41c863"/></g></g></svg>