<svg id="Calque_1" data-name="Calque 1" xmlns="http://www.w3.org/2000/svg" viewBox="0 0 167.79 167.79"><defs><style>.cls-1{fill:#094656;}.cls-2{fill:#fff;}</style></defs><title>Logo greatwishes label</title><circle class="cls-1" cx="83.89" cy="83.89" r="83.89"/><path class="cls-2" d="M23.94,104.44C23.75,92.53,25.44,75,32.07,65c.31-.46,3.12-.5,3,.15-.89,5.79-3.24,12.11-4.28,19.39a138.24,138.24,0,0,0-1.08,16.88,38.29,38.29,0,0,0,.5,8.44c.42,1.93.62,2.82,2.35,3.59s3.51,0,5.28-.31c2.51-.5,6.52-1.66,8.33.92a.42.42,0,0,1,0,.5c-.08.2-.2.35-.27.54-.47.77-2.62.5-3.24.16-1.2-.73-6.94,1.31-8.71,1.46a11.79,11.79,0,0,1-5.67-.58C24.17,114.38,24,108.45,23.94,104.44Z" transform="translate(-11.66 -12.47)"/><path class="cls-2" d="M46,101.28c.27-4.67,1.89-10.76,6.74-12.57,2.7-1,7.06-1,8.17,2.12,1.28,2.24-1.38,5.55-3,7.06a14,14,0,0,1-5.59,3.27c0,1.85-.12,4.7.81,6.17,1.81,2.85,6.36-2.89,7.9-4.78.23-.31,2-.12,2,0-1.62,3.81-7.28,8.21-11.17,7.9C46.72,110.1,45.76,105.86,46,101.28Zm6.43-1.54a14.21,14.21,0,0,0,3.2-2.32,9.35,9.35,0,0,0,2.66-3.89,9.8,9.8,0,0,0-.07-3.66C54.47,88.56,52.77,96.15,52.46,99.74Z" transform="translate(-11.66 -12.47)"/><path class="cls-2" d="M78.79,116.12c-1.81-3.94-1.35-9.1-1.35-13.38s.2-8.71.58-13.06A126.23,126.23,0,0,1,80,76c.73-3.66,1.31-7.63,3.23-10.87.43-.73,3.86-.85,3.93.15.39,4.2-1,8.67-1.61,12.88-.54,4-1,8.17-1.28,12.29v.23a16.85,16.85,0,0,0,3.43-1.35,24.26,24.26,0,0,0,6.59-5.55c4.21-4.93,5.36-11.1,8.91-16.22.19-.31,2.35-.39,2.35.07.11,6.59-5.36,14.8-10.06,19A25.88,25.88,0,0,1,89,91a17.45,17.45,0,0,1,8.09,5.31c3.78,4.21,9.17,13.53,6.32,19.31-.35.7-3.16.7-3.51,0-.88-1.77-.88-3.58-1.23-5.55a28.33,28.33,0,0,0-2.12-6.63c-1.7-3.7-6.47-12.1-11.6-10.86a4.36,4.36,0,0,1-.77,0c-.19,3.63-.31,7.21-.23,10.83,0,3.94,1,8.56,0,12.38C83.49,117.23,79.41,117.43,78.79,116.12Z" transform="translate(-11.66 -12.47)"/><path class="cls-2" d="M105.08,104.67c-1.5-5.09.58-13.37,6-15.34a6.5,6.5,0,0,1,5.63.46l.65.23a12.76,12.76,0,0,1,1-1.92c.46-.7,3.23-.66,3.54.15,1.39,3.78.7,8.33.62,12.3a27.38,27.38,0,0,0,.69,7.9c.27,1,1.78,3,1.47,4,0,.19-.43.23-.54.23-4.2.46-7.13-2.28-7.9-6.44-.19-.92-.31-2-.43-3.08-.84,2-2.15,4.43-3.89,5.24C108.7,109.83,106,107.75,105.08,104.67Zm4.39,1.93c.31,1,.89,1,1.82,0a12.13,12.13,0,0,0,1.23-1.7,21.16,21.16,0,0,0,1.93-4.28c.61-1.81,1.08-3.7,1.62-5.55.15-1,.34-1.92.57-2.85-.65-.5-1.11-1.39-1.81-1.81a2.7,2.7,0,0,0-2.35.27c-2,1.69-3.39,5.28-3.81,7.17C108.16,100,107.59,104.9,109.47,106.6Z" transform="translate(-11.66 -12.47)"/><path class="cls-2" d="M132.26,71.1a1.1,1.1,0,0,1,.42.73c-.31,5.67-1.39,15.23-1.39,20.93a30.64,30.64,0,0,0,.19,3.58,9.75,9.75,0,0,1,5.36-4.89c4.24-1.31,7.94.46,8.63,5,1,6.21-.46,13.38-5.62,17.46-2.12,1.66-9.21,4.62-10.68.77-.19-.54,2.39-.38,2.62-.35,3.86,1.08,7.17-4,8.52-6.93A22.27,22.27,0,0,0,142,97.62a11.59,11.59,0,0,0-.35-2.82,2.9,2.9,0,0,0-3.74-2.16c-1.62.54-2.89,3-3.62,4.44a51.94,51.94,0,0,0-2.43,6,10.81,10.81,0,0,1-1.23,5.28c-.39.58-2.58.5-3,0-3.7-4.32-2.54-13.22-2.43-18.62.08-3.2.66-10.36,1-13.56.3-3,0-4.74,2.85-6C130.21,69.67,131.33,70.52,132.26,71.1Z" transform="translate(-11.66 -12.47)"/><path class="cls-2" d="M147.52,104.67c-1.5-5.09.58-13.37,6-15.34a6.5,6.5,0,0,1,5.63.46l.65.23a12.76,12.76,0,0,1,1-1.92c.46-.7,3.23-.66,3.54.15,1.39,3.78.7,8.33.62,12.3a27.38,27.38,0,0,0,.69,7.9c.27,1,1.78,3,1.47,4,0,.19-.43.23-.54.23-4.2.46-7.13-2.28-7.9-6.44-.19-.92-.31-2-.43-3.08-.84,2-2.15,4.43-3.89,5.24C151.14,109.83,148.45,107.75,147.52,104.67Zm4.39,1.93c.31,1,.89,1,1.82,0a12.13,12.13,0,0,0,1.23-1.7,21.16,21.16,0,0,0,1.93-4.28c.61-1.81,1.08-3.7,1.62-5.55.15-1,.34-1.92.57-2.85-.65-.5-1.11-1.39-1.81-1.81a2.7,2.7,0,0,0-2.35.27c-2,1.69-3.39,5.28-3.81,7.17C150.6,100,150,104.9,151.91,106.6Z" transform="translate(-11.66 -12.47)"/></svg>