<svg xmlns="http://www.w3.org/2000/svg" width="16.432" height="19.968" viewBox="0 0 16.432 19.968">
  <g id="login-password-4" transform="translate(-144 -64)">
    <path id="Tracé_149" data-name="Tracé 149" d="M158.217,72.537H147.394V69.894a4.822,4.822,0,1,1,9.645,0,.536.536,0,0,0,1.072,0,5.894,5.894,0,1,0-11.788,0v2.643h-.107A2.226,2.226,0,0,0,144,74.752v7a2.226,2.226,0,0,0,2.215,2.215h12a2.226,2.226,0,0,0,2.215-2.215v-7A2.226,2.226,0,0,0,158.217,72.537Zm1.143,9.216a1.128,1.128,0,0,1-1.143,1.143h-12a1.128,1.128,0,0,1-1.143-1.143v-7a1.128,1.128,0,0,1,1.143-1.143h12a1.128,1.128,0,0,1,1.143,1.143Z" fill="#4b4b4b"/>
    <path id="Tracé_150" data-name="Tracé 150" d="M425.965,572.8A1.982,1.982,0,0,0,424,574.765a1.922,1.922,0,0,0,1.5,1.893v1.679a.413.413,0,0,0,.429.429H426a.413.413,0,0,0,.429-.429v-1.679a1.984,1.984,0,0,0,1.5-1.893A1.959,1.959,0,0,0,425.965,572.8Zm0,3A1.036,1.036,0,1,1,427,574.765,1.037,1.037,0,0,1,425.965,575.8Z" transform="translate(-273.749 -497.441)" fill="#4b4b4b"/>
  </g>
</svg>
