<svg xmlns="http://www.w3.org/2000/svg" width="21.623" height="16.212" viewBox="0 0 21.623 16.212">
  <g id="mail-142" transform="translate(0 0)">
    <g id="Groupe_1079" data-name="Groupe 1079" transform="translate(0 0)">
      <path id="Tracé_140" data-name="Tracé 140" d="M18.15,47.752H3.473A3.477,3.477,0,0,1,0,44.279V35.013A3.477,3.477,0,0,1,3.473,31.54H18.15a3.477,3.477,0,0,1,3.473,3.473v9.266A3.477,3.477,0,0,1,18.15,47.752ZM3.473,32.555a2.46,2.46,0,0,0-2.457,2.457v9.266a2.46,2.46,0,0,0,2.457,2.458H18.15a2.46,2.46,0,0,0,2.457-2.458V35.013a2.46,2.46,0,0,0-2.457-2.457Z" transform="translate(0 -31.54)" fill="#4b4b4b"/>
      <path id="Tracé_141" data-name="Tracé 141" d="M29.251,63.074l7.787,7.588c.484.471,1.227-.27.742-.742l-7.787-7.588c-.484-.472-1.227.27-.742.742Z" transform="translate(-26.598 -59.553)" fill="#4b4b4b"/>
      <path id="Tracé_142" data-name="Tracé 142" d="M120.774,70.663l7.787-7.588c.484-.472-.258-1.214-.742-.742l-7.787,7.588c-.484.472.258,1.214.742.742Z" transform="translate(-109.591 -59.553)" fill="#4b4b4b"/>
      <path id="Tracé_143" data-name="Tracé 143" d="M155.957,127.976l-5.182-4.914c-.49-.464-1.233.276-.742.742l5.182,4.914c.49.464,1.233-.276.742-.742Z" transform="translate(-137.016 -115.077)" fill="#4b4b4b"/>
      <path id="Tracé_144" data-name="Tracé 144" d="M30.837,128.715l5.182-4.914c.491-.466-.252-1.207-.742-.742L30.1,127.973c-.491.466.252,1.207.742.742Z" transform="translate(-27.367 -115.073)" fill="#4b4b4b"/>
    </g>
  </g>
</svg>
