<?xml version="1.0" ?><svg data-name="Layer 1" id="Layer_1" viewBox="0 0 128 128" xmlns="http://www.w3.org/2000/svg"><defs><style>.cls-1{fill:#062b31;}</style></defs><title/><path class="cls-1" d="M64,20.5A43.5,43.5,0,1,1,20.5,64,43.55,43.55,0,0,1,64,20.5M64,14a50,50,0,1,0,50,50A50,50,0,0,0,64,14Z"/><path class="cls-1" d="M43,82.06c-.29.33-11-6.62-11-19.09s8.86-30.58,33.6-30.58S96,52.94,96,62.29s-5.36,30-24.84,30c-9.64,0-12.37-5.45-12.37-5.45s-3.86,18.68-9.33,24.49c0,0-6.64,2.88-3.72-15.72.21-1.34,6.33-24.55,6.33-24.55a23.44,23.44,0,0,1-1.56-8.47c0-4.87,4.38-11.1,9.16-11.1S65.9,56,65.9,58.68s-4.38,15.49-4.38,18.41,2.34,7,7.79,7S84.8,78.55,84.8,63,73.4,41.25,65,41.25s-23.77,5-23.77,20.94c0,8.18,3.9,12,3.9,12S45.74,78.94,43,82.06Z"/></svg>