<svg xmlns="http://www.w3.org/2000/svg" width="30.176" height="29.322" viewBox="0 0 30.176 29.322">
  <g id="Tracé_578" data-name="Tracé 578" transform="translate(0 0.638)" fill="none">
    <path d="M15.088-.54c3.683,0,6.172-.9,9.944,2.75a15.356,15.356,0,0,1,5.144,11.861A14.856,14.856,0,0,1,15.088,28.684c-4.158,0-6.575-1.395-10.347-5.048S0,18.115,0,14.072A14.855,14.855,0,0,1,15.088-.54Z" stroke="none"/>
    <path d="M 18.43961334228516 0.3617000579833984 C 17.95853424072266 0.3617000579833984 17.4616641998291 0.383819580078125 16.93561363220215 0.4072494506835938 C 16.34887313842773 0.4333705902099609 15.74215412139893 0.4603900909423828 15.08782386779785 0.4603900909423828 C 11.31879425048828 0.4603900909423828 7.776973724365234 1.8802490234375 5.114803314208984 4.458419799804688 C 2.461334228515625 7.028160095214844 1.000003814697266 10.44236946105957 1.000003814697266 14.07211971282959 C 1.000003814697266 16.04568099975586 1.246383666992188 17.34402847290039 1.850404739379883 18.55352973937988 C 2.462793350219727 19.77980041503906 3.501663208007812 21.04415893554688 5.436162948608398 22.9176197052002 C 9.253774642944336 26.61478042602539 11.41863441467285 27.68383979797363 15.08782386779785 27.68383979797363 C 18.85685348510742 27.68383979797363 22.3986644744873 26.26397895812988 25.06084442138672 23.68581008911133 C 27.71431350708008 21.11606979370117 29.17564392089844 17.70185852050781 29.17564392089844 14.07211971282959 C 29.17564392089844 11.86277008056641 28.82241439819336 9.944879531860352 28.09575462341309 8.208839416503906 C 27.31960296630859 6.354558944702148 26.08982467651367 4.627578735351562 24.33612442016602 2.929220199584961 C 22.11875343322754 0.7818202972412109 20.49500274658203 0.3617000579833984 18.43961334228516 0.3617000579833984 M 18.43960952758789 -0.6383037567138672 C 20.55744171142578 -0.6383037567138672 22.50719451904297 -0.2340793609619141 25.03180313110352 2.210868835449219 C 28.80376434326172 5.863800048828125 30.17564392089844 9.569149017333984 30.17564392089844 14.07211971282959 C 30.17564392089844 22.14193916320801 23.42059326171875 28.68383979797363 15.08782386779785 28.68383979797363 C 10.92976379394531 28.68383979797363 8.512434005737305 27.28890991210938 4.740484237670898 23.6359691619873 C 0.9685230255126953 19.98303985595703 3.814697265625e-06 18.1151008605957 3.814697265625e-06 14.07211971282959 C 3.814697265625e-06 6.002288818359375 6.755043029785156 -0.5396099090576172 15.08782386779785 -0.5396099090576172 C 16.3057746887207 -0.5396099090576172 17.39324569702148 -0.6383037567138672 18.43960952758789 -0.6383037567138672 Z" stroke="none" fill="#192a51"/>
  </g>
</svg>
